<svg id="Livello_1" data-name="Livello 1" xmlns="http://www.w3.org/2000/svg" viewBox="0 0 291.69 99.95"><defs><style>.cls-1{fill:#3e5ea9;stroke:#2c2a6c;stroke-miterlimit:10;}.cls-2{fill:none;}</style></defs><title>logoArchiNews</title><circle class="cls-1" cx="163.95" cy="49.97" r="49.47"/><path d="M140.28,245.43l7.21-25h5.09l7.21,25H156.1l-5.91-21.94h-.31L144,245.43Zm3.34-6.08V236h12.66v3.34Z" transform="translate(-140.28 -185.25)"/><path d="M164.69,245.43v-3.27h12.44v3.27Zm.7-15.36V226.8h6.23l.35,3.27Zm3.45,15.36V226.8h3l.7,5.34v13.29Zm3.72-8-1.09-5.83h1.45q.32-5.13,5.13-5.13a5,5,0,0,1,4.18,1.65q1.31,1.65,1.3,5.34h-3.69a5.41,5.41,0,0,0-.6-2.93,2.2,2.2,0,0,0-2-.9,3.84,3.84,0,0,0-3.55,2A11.68,11.68,0,0,0,172.56,237.41Z" transform="translate(-140.28 -185.25)"/><path d="M199.42,245.78q-4.77,0-7.36-2.5t-2.59-7.2c0-3.05.81-5.42,2.45-7.1s4-2.53,7-2.53a9.91,9.91,0,0,1,4.67,1,5.84,5.84,0,0,1,2.77,2.85l-2.87,2.17a5.58,5.58,0,0,0-2-2,5.84,5.84,0,0,0-6.78.89,7.74,7.74,0,0,0,.25,9.38,6.73,6.73,0,0,0,4.9,1.68c.87,0,1.73,0,2.6-.12s1.71-.19,2.53-.34l.42,3.27a19.1,19.1,0,0,1-3,.43C201.39,245.75,200.39,245.78,199.42,245.78Z" transform="translate(-140.28 -185.25)"/><path d="M213.82,245.43V219.06h3.73v26.37Zm11.46,0V233.3a3.93,3.93,0,0,0-.87-2.73,3.19,3.19,0,0,0-2.47-1c-2.92,0-4.39,1.78-4.39,5.34l-1.09-4.78h1.44a3.72,3.72,0,0,1,1.37-2.8,7,7,0,0,1,8.12.87A7.27,7.27,0,0,1,229,233.3v12.13Z" transform="translate(-140.28 -185.25)"/><path d="M237.48,245.43v-3.27h7.45v3.27Zm1.05-15.36V226.8h9.77v3.27Zm7.79-6.23a2.59,2.59,0,1,1,1.84-.76A2.5,2.5,0,0,1,246.32,223.84Zm-1.74,21.59V227.85h3.72v17.58Zm3.37,0v-3.27H254v3.27Z" transform="translate(-140.28 -185.25)"/><path d="M261.06,245.43v-25h3.66v25Zm11.18,0-7.17-19h-1.62v-6h2.32l7.17,19h.88v6Zm1.05,0v-25H277v25Z" transform="translate(-140.28 -185.25)"/><path d="M294.42,245.78q-4.77,0-7.36-2.5t-2.59-7.2q0-4.58,2.19-7.1a7.79,7.79,0,0,1,6.21-2.53,7.46,7.46,0,0,1,5.84,2.28q2.07,2.28,2.07,6.65a22.45,22.45,0,0,1-.11,2.39H287.6v-2.85h9.8a5.61,5.61,0,0,0-1.19-3.86,4.19,4.19,0,0,0-3.31-1.34,4.45,4.45,0,0,0-3.68,1.61,7.11,7.11,0,0,0-1.31,4.57,6.41,6.41,0,0,0,1.8,4.92,7.21,7.21,0,0,0,5.13,1.69,19.12,19.12,0,0,0,2.28-.13c.75-.09,1.52-.21,2.29-.36l.46,3.27a23.24,23.24,0,0,1-3,.4C295.93,245.75,295.12,245.78,294.42,245.78Z" transform="translate(-140.28 -185.25)"/><path d="M309.39,245.43l-2.11-18.63h3.51l1.41,15.82h.31l2.2-15.82h3.41l-1.56,3.83h-.25l-2.18,14.8Zm9.31,0-2.18-14.8h-.28l-1.53-3.83h3.41l2.2,15.82h.32l1.58-15.82h3.69l-2.64,18.63Z" transform="translate(-140.28 -185.25)"/><path d="M339,245.78c-1.41,0-2.62,0-3.62-.12a19.24,19.24,0,0,1-2.75-.41l.42-3.37c1.23.19,2.32.33,3.26.42a25.54,25.54,0,0,0,2.69.14,11.07,11.07,0,0,0,4.1-.55,1.84,1.84,0,0,0,1.27-1.77,1.68,1.68,0,0,0-.44-1.26,3.29,3.29,0,0,0-1.38-.64l-4.29-1.09a10.9,10.9,0,0,1-4-1.74,3.77,3.77,0,0,1-1.3-3.14,4.75,4.75,0,0,1,2.35-4.43c1.56-.92,4.09-1.37,7.57-1.37.9,0,1.74,0,2.52.08s1.58.14,2.4.27l-.39,3.23c-.95-.09-1.78-.16-2.51-.19s-1.44-.05-2.13-.05a13.75,13.75,0,0,0-4.53.53,1.84,1.84,0,0,0-1.41,1.75,1.27,1.27,0,0,0,.58,1.17,6.56,6.56,0,0,0,1.78.66l3.44.84a10.37,10.37,0,0,1,4.3,1.88,4.29,4.29,0,0,1,1.36,3.43,4.74,4.74,0,0,1-2.2,4.37Q343.8,245.79,339,245.78Z" transform="translate(-140.28 -185.25)"/><text x="-140.28" y="-185.25"/><line class="cls-2" x1="127.38" y1="21.07" x2="200.53" y2="39.07"/><line class="cls-2" x1="218.53" y1="20.94" x2="291.69" y2="38.94"/><path d="M185.53,256.36v-.64H187v.64Zm.2-3v-.64h1.9v.64Zm1.52-1.21a.51.51,0,0,1-.51-.51.45.45,0,0,1,.15-.35.51.51,0,0,1,.72,0,.48.48,0,0,1,.14.35.52.52,0,0,1-.14.36A.49.49,0,0,1,187.25,252.16Zm-.34,4.2v-3.42h.72v3.42Zm.66,0v-.64h1.18v.64Z" transform="translate(-140.28 -185.25)"/><path d="M189.49,251.87v-.64h1.13v.64Zm2.25,4.56a1.11,1.11,0,0,1-.91-.35,1.74,1.74,0,0,1-.28-1.09v-3.76h.73V255a1.89,1.89,0,0,0,.05.46.43.43,0,0,0,.22.27,1,1,0,0,0,.47.09,2.9,2.9,0,0,0,.72-.13l.08.63a3.58,3.58,0,0,1-.53.11A4.58,4.58,0,0,1,191.74,256.43Z" transform="translate(-140.28 -185.25)"/><path d="M199.27,256.43a1.31,1.31,0,0,1-1.08-.47,2.23,2.23,0,0,1-.37-1.38,2.39,2.39,0,0,1,.37-1.43,1.29,1.29,0,0,1,1.08-.48,1.15,1.15,0,0,1,.69.19.73.73,0,0,1,.3.53h.28l-.24,1a1.39,1.39,0,0,0-.22-.85.77.77,0,0,0-.65-.29.75.75,0,0,0-.66.33,1.71,1.71,0,0,0-.23,1,1.56,1.56,0,0,0,.23.92.76.76,0,0,0,.66.31.77.77,0,0,0,.65-.29,1.37,1.37,0,0,0,.22-.85l.24,1h-.31a.69.69,0,0,1-.29.53A1.07,1.07,0,0,1,199.27,256.43ZM198.12,258l0-.66,1.17,0a1.07,1.07,0,0,0,.8-.3,1.28,1.28,0,0,0,.25-.84V253.5l.07-.77H201V256a1.66,1.66,0,0,1-1.84,1.92Z" transform="translate(-140.28 -185.25)"/><path d="M202.21,256.36v-.64h1.45v.64Zm.21-3v-.64h1.9v.64Zm1.51-1.21a.47.47,0,0,1-.35-.15.49.49,0,0,1-.15-.36.45.45,0,0,1,.15-.35.47.47,0,0,1,.35-.15.49.49,0,0,1,.36.15.45.45,0,0,1,.15.35.51.51,0,0,1-.51.51Zm-.33,4.2v-3.42h.72v3.42Zm.65,0v-.64h1.18v.64Z" transform="translate(-140.28 -185.25)"/><path d="M207.89,256.43a1.45,1.45,0,0,1-1.17-.5,2.49,2.49,0,0,1,0-2.77,1.64,1.64,0,0,1,2.34,0,2.49,2.49,0,0,1,0,2.77A1.45,1.45,0,0,1,207.89,256.43Zm0-.65a.72.72,0,0,0,.62-.32,2.1,2.1,0,0,0,0-1.83.78.78,0,0,0-1.24,0,2.1,2.1,0,0,0,0,1.83A.72.72,0,0,0,207.89,255.78Z" transform="translate(-140.28 -185.25)"/><path d="M210.28,256.36v-.64h2.42v.64Zm.14-3v-.64h1.21l.07.64Zm.67,3v-3.63h.59l.14,1v2.59Zm.73-1.56-.22-1.14h.28a.92.92,0,0,1,1-1,1,1,0,0,1,.82.32,1.74,1.74,0,0,1,.25,1h-.72a1,1,0,0,0-.12-.57.42.42,0,0,0-.38-.18.73.73,0,0,0-.69.4A2.27,2.27,0,0,0,211.82,254.8Z" transform="translate(-140.28 -185.25)"/><path d="M214.76,256.36v-3.63h.65l.07.77v2.86Zm2.22,0V254a.69.69,0,0,0-.17-.51.61.61,0,0,0-.47-.17c-.57,0-.86.33-.86,1l-.21-.93h.28a.69.69,0,0,1,.27-.54,1.09,1.09,0,0,1,.69-.18,1.15,1.15,0,0,1,.89.34,1.5,1.5,0,0,1,.31,1v2.36Z" transform="translate(-140.28 -185.25)"/><path d="M219.87,256.43a1.31,1.31,0,0,1-.88-.28,1,1,0,0,1-.31-.77,1,1,0,0,1,.43-.88,2,2,0,0,1,1.21-.31,3.37,3.37,0,0,1,.58,0,2.44,2.44,0,0,1,.45.12l-.15.49-.44-.06h-.45c-.63,0-.94.19-.94.58a.41.41,0,0,0,.16.36.7.7,0,0,0,.46.13,1.19,1.19,0,0,0,.56-.11.78.78,0,0,0,.34-.3.65.65,0,0,0,.12-.37v-.4l.21.93h-.29l.12-.11a.9.9,0,0,1-.15.53.82.82,0,0,1-.41.31A1.64,1.64,0,0,1,219.87,256.43Zm1.28,0-.05-1.07L221,255v-.94a.59.59,0,0,0-.26-.53,1.49,1.49,0,0,0-.76-.18l-.86,0,.06-.64h.74a2,2,0,0,1,1.33.39,1.36,1.36,0,0,1,.44,1.09v1.51l.61.08v.58Z" transform="translate(-140.28 -185.25)"/><path d="M222.86,251.87v-.64H224v.64Zm2.26,4.56a1.1,1.1,0,0,1-.91-.35,1.68,1.68,0,0,1-.28-1.09v-3.76h.72V255a1.47,1.47,0,0,0,.06.46.39.39,0,0,0,.21.27,1,1,0,0,0,.47.09,2.9,2.9,0,0,0,.72-.13l.09.63a4.19,4.19,0,0,1-.53.11A4.74,4.74,0,0,1,225.12,256.43Z" transform="translate(-140.28 -185.25)"/><path d="M229.06,256.43a2,2,0,0,1-1.43-.49,1.89,1.89,0,0,1-.5-1.4,2.07,2.07,0,0,1,.42-1.38,1.52,1.52,0,0,1,1.21-.49,1.45,1.45,0,0,1,1.14.44,1.86,1.86,0,0,1,.4,1.29c0,.17,0,.32,0,.47h-2.54v-.56h1.9a1.09,1.09,0,0,0-.23-.75.82.82,0,0,0-.64-.26.88.88,0,0,0-.72.32,1.36,1.36,0,0,0-.25.88,1.23,1.23,0,0,0,.35,1,1.38,1.38,0,0,0,1,.33,3.4,3.4,0,0,0,.45,0,3.64,3.64,0,0,0,.44-.07l.09.64a4.59,4.59,0,0,1-.59.08Z" transform="translate(-140.28 -185.25)"/><path d="M236.81,256.43a1.28,1.28,0,0,1-1.07-.47,2.16,2.16,0,0,1-.37-1.38,2.32,2.32,0,0,1,.37-1.43,1.26,1.26,0,0,1,1.07-.48,1.09,1.09,0,0,1,.67.19.72.72,0,0,1,.29.53h.28l-.21,1a1.39,1.39,0,0,0-.22-.85.76.76,0,0,0-.65-.29.75.75,0,0,0-.66.33,1.72,1.72,0,0,0-.22,1,1.56,1.56,0,0,0,.22.92.87.87,0,0,0,1.31,0,1.37,1.37,0,0,0,.22-.85l.25,1h-.32a.68.68,0,0,1-.28.53A1.1,1.1,0,0,1,236.81,256.43Zm1.11,0-.08-.71v-4.45h.73v5.13Z" transform="translate(-140.28 -185.25)"/><path d="M241.58,256.43a2,2,0,0,1-1.43-.49,1.85,1.85,0,0,1-.51-1.4,2,2,0,0,1,.43-1.38,1.5,1.5,0,0,1,1.21-.49,1.43,1.43,0,0,1,1.13.44,1.86,1.86,0,0,1,.4,1.29,3.54,3.54,0,0,1,0,.47h-2.54v-.56h1.91a1.14,1.14,0,0,0-.23-.75.84.84,0,0,0-.65-.26.87.87,0,0,0-.71.32,1.36,1.36,0,0,0-.26.88,1.27,1.27,0,0,0,.35,1,1.42,1.42,0,0,0,1,.33,3.15,3.15,0,0,0,.44,0,3.5,3.5,0,0,0,.45-.07l.09.64a4.84,4.84,0,0,1-.59.08Z" transform="translate(-140.28 -185.25)"/><path d="M245.16,256.43a1.28,1.28,0,0,1-1.08-.47,2.16,2.16,0,0,1-.37-1.38,2.32,2.32,0,0,1,.37-1.43,1.26,1.26,0,0,1,1.08-.48,1.1,1.1,0,0,1,.68.19.71.71,0,0,1,.31.53h.28l-.24,1a1.46,1.46,0,0,0-.22-.85.79.79,0,0,0-.65-.29.78.78,0,0,0-.67.33,1.72,1.72,0,0,0-.22,1,1.56,1.56,0,0,0,.22.92.88.88,0,0,0,1.32,0,1.44,1.44,0,0,0,.22-.85l.24,1h-.31a.72.72,0,0,1-.29.53A1.07,1.07,0,0,1,245.16,256.43ZM244,258l0-.66,1.16,0a1,1,0,0,0,.8-.3,1.28,1.28,0,0,0,.26-.84V253.5l.06-.77h.66V256a2,2,0,0,1-.44,1.42,1.94,1.94,0,0,1-1.41.5Z" transform="translate(-140.28 -185.25)"/><path d="M247.89,251.87v-.64H249v.64Zm2.26,4.56a1.1,1.1,0,0,1-.91-.35A1.68,1.68,0,0,1,249,255v-3.76h.72V255a1.47,1.47,0,0,0,.06.46.39.39,0,0,0,.21.27,1,1,0,0,0,.47.09,2.9,2.9,0,0,0,.72-.13l.09.63a4,4,0,0,1-.54.11A4.56,4.56,0,0,1,250.15,256.43Z" transform="translate(-140.28 -185.25)"/><path d="M252.27,256.36v-.64h1.45v.64Zm.21-3v-.64h1.9v.64Zm1.51-1.21a.45.45,0,0,1-.35-.15.49.49,0,0,1-.15-.36.51.51,0,0,1,.5-.5.49.49,0,0,1,.36.15.45.45,0,0,1,.15.35.51.51,0,0,1-.51.51Zm-.34,4.2v-3.42h.73v3.42Zm.66,0v-.64h1.18v.64Z" transform="translate(-140.28 -185.25)"/><path d="M261.84,256.43a7,7,0,0,1-.7,0,2.8,2.8,0,0,1-.54-.08l.08-.65.64.08.52,0a2.2,2.2,0,0,0,.8-.11.37.37,0,0,0,.25-.34.32.32,0,0,0-.09-.25.68.68,0,0,0-.27-.12l-.83-.22a2.2,2.2,0,0,1-.79-.33.75.75,0,0,1-.25-.62.93.93,0,0,1,.45-.86,3.06,3.06,0,0,1,1.47-.26h.5l.46,0-.07.63-.49,0h-.42a2.7,2.7,0,0,0-.88.1.35.35,0,0,0-.27.34.27.27,0,0,0,.11.23,1.64,1.64,0,0,0,.35.13l.67.16a1.84,1.84,0,0,1,.83.37.81.81,0,0,1,.27.66.92.92,0,0,1-.43.85A2.64,2.64,0,0,1,261.84,256.43Z" transform="translate(-140.28 -185.25)"/><path d="M264.48,253.37v-.64h3.28v.64Zm.91,1.28v-3h.72v3Zm1.56,1.78a1.69,1.69,0,0,1-1.19-.35,1.4,1.4,0,0,1-.37-1.09v-.61h.72V255a.82.82,0,0,0,.21.62,1,1,0,0,0,.7.2l.36,0,.44,0,.08.63-.47.07Z" transform="translate(-140.28 -185.25)"/><path d="M270.11,256.43a1.18,1.18,0,0,1-.89-.34,1.42,1.42,0,0,1-.31-1v-2.4h.73v2.4a.69.69,0,0,0,.17.48.72.72,0,0,0,.5.17.73.73,0,0,0,.6-.25,1.35,1.35,0,0,0,.2-.85l.19,1h-.24a1,1,0,0,1-.34.57A1,1,0,0,1,270.11,256.43Zm1-1.1v-2.6h.73v2.4Zm.06,1.06-.06-.87v-.63h.73v.81l.5.08v.58Z" transform="translate(-140.28 -185.25)"/><path d="M274.36,256.43a1.28,1.28,0,0,1-1.08-.47,2.16,2.16,0,0,1-.37-1.38,2.32,2.32,0,0,1,.37-1.43,1.26,1.26,0,0,1,1.08-.48,1.05,1.05,0,0,1,.66.19.73.73,0,0,1,.3.53h.28l-.21,1a1.46,1.46,0,0,0-.22-.85.79.79,0,0,0-.65-.29.75.75,0,0,0-.66.33,1.71,1.71,0,0,0-.23,1,1.56,1.56,0,0,0,.23.92.76.76,0,0,0,.66.31.79.79,0,0,0,.65-.29,1.44,1.44,0,0,0,.22-.85l.24,1h-.31a.69.69,0,0,1-.29.53A1.07,1.07,0,0,1,274.36,256.43Zm1.1,0-.07-.71v-4.45h.72v5.13Z" transform="translate(-140.28 -185.25)"/><path d="M279.12,256.43a2,2,0,0,1-1.43-.49,1.85,1.85,0,0,1-.5-1.4,2.07,2.07,0,0,1,.42-1.38,1.52,1.52,0,0,1,1.21-.49,1.45,1.45,0,0,1,1.14.44,1.91,1.91,0,0,1,.4,1.29c0,.17,0,.32,0,.47h-2.55v-.56h1.91a1.14,1.14,0,0,0-.23-.75.84.84,0,0,0-.64-.26.88.88,0,0,0-.72.32,1.36,1.36,0,0,0-.25.88,1.23,1.23,0,0,0,.35,1,1.38,1.38,0,0,0,1,.33,3.4,3.4,0,0,0,.45,0,3.64,3.64,0,0,0,.44-.07l.09.64a4.59,4.59,0,0,1-.59.08Z" transform="translate(-140.28 -185.25)"/><path d="M281.5,256.36v-3.63h.66l.07.77v2.86Zm2.23,0V254a.73.73,0,0,0-.17-.51.61.61,0,0,0-.48-.17c-.57,0-.85.33-.85,1l-.22-.93h.28a.69.69,0,0,1,.27-.54,1.13,1.13,0,0,1,.69-.18,1.15,1.15,0,0,1,.89.34,1.45,1.45,0,0,1,.31,1v2.36Z" transform="translate(-140.28 -185.25)"/><path d="M285.34,253.37v-.64h3.28v.64Zm.91,1.28v-3H287v3Zm1.56,1.78a1.74,1.74,0,0,1-1.2-.35,1.43,1.43,0,0,1-.36-1.09v-.61H287V255a.82.82,0,0,0,.21.62,1,1,0,0,0,.69.2l.37,0,.43,0,.09.63-.47.07Z" transform="translate(-140.28 -185.25)"/><path d="M289.82,256.36v-.64h1.45v.64Zm.2-3v-.64h1.9v.64Zm1.52-1.21a.51.51,0,0,1-.51-.51.45.45,0,0,1,.15-.35.51.51,0,0,1,.72,0,.48.48,0,0,1,.14.35.52.52,0,0,1-.14.36A.49.49,0,0,1,291.54,252.16Zm-.34,4.2v-3.42h.72v3.42Zm.65,0v-.64H293v.64Z" transform="translate(-140.28 -185.25)"/></svg>